# xmcd
#
# Track frame offsets: 
#        150
#        44427
#        57472
#        82788
#        109519
#        147971
#
# Disc length: 2711 seconds
#
# Revision: 0
# Processed by: cddbd v1.5.1PL0 Copyright (c) Steve Scherf et al.
# Submitted via: ExactAudioCopy v0.95a5
#
DISCID=480a9506
DTITLE=Blues Traveler - 2001-07-08 Miller Oasis - Summerfest, Milwauke
DTITLE=e, WI
DYEAR=2001
DGENRE=Blues
TTITLE0=Rage
TTITLE1=Just For Me
TTITLE2=Carolina Blues >
TTITLE3=In Your Eyes >
TTITLE4=Run-Around
TTITLE5=Mother Funker
EXTD=
EXTT0=
EXTT1=
EXTT2=
EXTT3=
EXTT4=
EXTT5=
PLAYORDER=
